<?xml version="1.0" encoding="UTF-8"?>
<svg xmlns="http://www.w3.org/2000/svg" xmlns:xlink="http://www.w3.org/1999/xlink" width="150px" height="150px" viewBox="0 0 150 150" version="1.1">
<g id="surface1">
<rect x="0" y="0" width="150" height="150" style="fill:rgb(0%,65.098039%,31.764706%);fill-opacity:1;stroke:none;"/>
<path style=" stroke:none;fill-rule:nonzero;fill:rgb(100%,79.607843%,1.960784%);fill-opacity:1;" d="M 75 18.214844 L 12.75 75 L 75 131.785156 L 137.25 75 Z M 75 18.214844 "/>
<path style=" stroke:none;fill-rule:nonzero;fill:rgb(18.039216%,19.215686%,57.254902%);fill-opacity:1;" d="M 75 37.5 C 89.496094 37.5 101.25 54.292969 101.25 75 C 101.25 95.707031 89.496094 112.5 75 112.5 C 60.503906 112.5 48.75 95.707031 48.75 75 C 48.75 54.292969 60.503906 37.5 75 37.5 Z M 75 37.5 "/>
<path style=" stroke:none;fill-rule:evenodd;fill:rgb(100%,100%,100%);fill-opacity:1;" d="M 83.632812 62.273438 L 83.882812 63.683594 L 83.023438 62.90625 L 82.164062 63.683594 L 82.417969 62.273438 L 81.632812 61.34375 L 82.648438 61.253906 L 83.023438 59.902344 L 83.398438 61.253906 L 84.414062 61.34375 Z M 83.632812 62.273438 "/>
<path style=" stroke:none;fill-rule:evenodd;fill:rgb(100%,100%,100%);fill-opacity:1;" d="M 81.589844 72.980469 L 81.769531 73.996094 L 81.152344 73.433594 L 80.535156 73.996094 L 80.714844 72.980469 L 80.152344 72.3125 L 80.882812 72.246094 L 81.152344 71.273438 L 81.421875 72.246094 L 82.152344 72.3125 Z M 81.589844 72.980469 "/>
<path style=" stroke:none;fill-rule:evenodd;fill:rgb(100%,100%,100%);fill-opacity:1;" d="M 54.257812 69.21875 L 54.507812 70.628906 L 53.648438 69.851562 L 52.789062 70.628906 L 53.042969 69.21875 L 52.257812 68.292969 L 53.273438 68.199219 L 53.648438 66.847656 L 54.023438 68.199219 L 55.042969 68.292969 Z M 54.257812 69.21875 "/>
<path style=" stroke:none;fill-rule:evenodd;fill:rgb(100%,100%,100%);fill-opacity:1;" d="M 65.269531 76.828125 L 65.484375 78.019531 L 64.757812 77.363281 L 64.03125 78.019531 L 64.246094 76.828125 L 63.582031 76.046875 L 64.441406 75.96875 L 64.757812 74.828125 L 65.074219 75.96875 L 65.933594 76.046875 Z M 65.269531 76.828125 "/>
<path style=" stroke:none;fill-rule:evenodd;fill:rgb(100%,100%,100%);fill-opacity:1;" d="M 58.539062 82.183594 L 58.675781 82.941406 L 58.210938 82.523438 L 57.75 82.941406 L 57.886719 82.183594 L 57.464844 81.683594 L 58.011719 81.636719 L 58.210938 80.90625 L 58.414062 81.636719 L 58.960938 81.683594 Z M 58.539062 82.183594 "/>
<path style=" stroke:none;fill-rule:evenodd;fill:rgb(100%,100%,100%);fill-opacity:1;" d="M 56.414062 84.789062 L 56.667969 86.199219 L 55.808594 85.421875 L 54.949219 86.199219 L 55.199219 84.789062 L 54.417969 83.863281 L 55.433594 83.769531 L 55.808594 82.417969 L 56.183594 83.769531 L 57.199219 83.863281 Z M 56.414062 84.789062 "/>
<path style=" stroke:none;fill-rule:evenodd;fill:rgb(100%,100%,100%);fill-opacity:1;" d="M 53.570312 87.976562 L 53.785156 89.164062 L 53.058594 88.507812 L 52.332031 89.164062 L 52.546875 87.976562 L 51.882812 87.195312 L 52.742188 87.113281 L 53.058594 85.972656 L 53.375 87.113281 L 54.234375 87.195312 Z M 53.570312 87.976562 "/>
<path style=" stroke:none;fill-rule:evenodd;fill:rgb(100%,100%,100%);fill-opacity:1;" d="M 61.628906 88.269531 L 61.839844 89.457031 L 61.117188 88.800781 L 60.390625 89.457031 L 60.601562 88.269531 L 59.941406 87.484375 L 60.796875 87.40625 L 61.117188 86.265625 L 61.433594 87.40625 L 62.289062 87.484375 Z M 61.628906 88.269531 "/>
<path style=" stroke:none;fill-rule:evenodd;fill:rgb(100%,100%,100%);fill-opacity:1;" d="M 60.601562 92.179688 L 60.785156 93.191406 L 60.164062 92.632812 L 59.546875 93.191406 L 59.726562 92.179688 L 59.164062 91.511719 L 59.894531 91.445312 L 60.164062 90.472656 L 60.4375 91.445312 L 61.167969 91.511719 Z M 60.601562 92.179688 "/>
<path style=" stroke:none;fill-rule:evenodd;fill:rgb(100%,100%,100%);fill-opacity:1;" d="M 64.597656 96.101562 L 64.851562 97.511719 L 63.992188 96.734375 L 63.132812 97.511719 L 63.382812 96.101562 L 62.601562 95.175781 L 63.617188 95.082031 L 63.992188 93.730469 L 64.367188 95.082031 L 65.382812 95.175781 Z M 64.597656 96.101562 "/>
<path style=" stroke:none;fill-rule:evenodd;fill:rgb(100%,100%,100%);fill-opacity:1;" d="M 75.363281 104.925781 L 75.460938 105.46875 L 75.128906 105.167969 L 74.800781 105.46875 L 74.898438 104.925781 L 74.597656 104.570312 L 74.988281 104.535156 L 75.128906 104.015625 L 75.273438 104.535156 L 75.664062 104.570312 Z M 75.363281 104.925781 "/>
<path style=" stroke:none;fill-rule:evenodd;fill:rgb(100%,100%,100%);fill-opacity:1;" d="M 75.710938 81.867188 L 75.921875 83.054688 L 75.199219 82.398438 L 74.472656 83.054688 L 74.683594 81.867188 L 74.023438 81.082031 L 74.878906 81.003906 L 75.199219 79.863281 L 75.515625 81.003906 L 76.371094 81.082031 Z M 75.710938 81.867188 "/>
<path style=" stroke:none;fill-rule:evenodd;fill:rgb(100%,100%,100%);fill-opacity:1;" d="M 78.113281 85.074219 L 78.324219 86.265625 L 77.597656 85.609375 L 76.875 86.265625 L 77.085938 85.074219 L 76.425781 84.292969 L 77.28125 84.214844 L 77.597656 83.074219 L 77.917969 84.214844 L 78.773438 84.292969 Z M 78.113281 85.074219 "/>
<path style=" stroke:none;fill-rule:evenodd;fill:rgb(100%,100%,100%);fill-opacity:1;" d="M 73.804688 87.402344 L 73.9375 88.160156 L 73.476562 87.742188 L 73.015625 88.160156 L 73.148438 87.402344 L 72.726562 86.902344 L 73.273438 86.855469 L 73.476562 86.125 L 73.679688 86.855469 L 74.226562 86.902344 Z M 73.804688 87.402344 "/>
<path style=" stroke:none;fill-rule:evenodd;fill:rgb(100%,100%,100%);fill-opacity:1;" d="M 72 85.46875 L 72.179688 86.480469 L 71.5625 85.921875 L 70.941406 86.480469 L 71.125 85.46875 L 70.5625 84.800781 L 71.292969 84.734375 L 71.5625 83.761719 L 71.832031 84.734375 L 72.5625 84.800781 Z M 72 85.46875 "/>
<path style=" stroke:none;fill-rule:evenodd;fill:rgb(100%,100%,100%);fill-opacity:1;" d="M 75.652344 92.855469 L 75.90625 94.261719 L 75.046875 93.484375 L 74.183594 94.261719 L 74.4375 92.855469 L 73.652344 91.925781 L 74.667969 91.832031 L 75.046875 90.480469 L 75.421875 91.832031 L 76.4375 91.925781 Z M 75.652344 92.855469 "/>
<path style=" stroke:none;fill-rule:evenodd;fill:rgb(100%,100%,100%);fill-opacity:1;" d="M 80.894531 96.582031 L 81.074219 97.59375 L 80.457031 97.035156 L 79.839844 97.59375 L 80.019531 96.582031 L 79.457031 95.914062 L 80.1875 95.847656 L 80.457031 94.875 L 80.726562 95.847656 L 81.457031 95.914062 Z M 80.894531 96.582031 "/>
<path style=" stroke:none;fill-rule:evenodd;fill:rgb(100%,100%,100%);fill-opacity:1;" d="M 83.121094 101.246094 L 83.335938 102.4375 L 82.609375 101.78125 L 81.882812 102.4375 L 82.097656 101.246094 L 81.433594 100.464844 L 82.292969 100.386719 L 82.609375 99.246094 L 82.925781 100.386719 L 83.785156 100.464844 Z M 83.121094 101.246094 "/>
<path style=" stroke:none;fill-rule:evenodd;fill:rgb(100%,100%,100%);fill-opacity:1;" d="M 85.441406 97.527344 L 85.625 98.539062 L 85.007812 97.980469 L 84.386719 98.539062 L 84.570312 97.527344 L 84.003906 96.859375 L 84.734375 96.792969 L 85.007812 95.820312 L 85.277344 96.792969 L 86.007812 96.859375 Z M 85.441406 97.527344 "/>
<path style=" stroke:none;fill-rule:evenodd;fill:rgb(100%,100%,100%);fill-opacity:1;" d="M 88.574219 104.234375 L 88.753906 105.25 L 88.136719 104.6875 L 87.515625 105.25 L 87.699219 104.234375 L 87.132812 103.566406 L 87.867188 103.5 L 88.136719 102.527344 L 88.40625 103.5 L 89.136719 103.566406 Z M 88.574219 104.234375 "/>
<path style=" stroke:none;fill-rule:evenodd;fill:rgb(100%,100%,100%);fill-opacity:1;" d="M 88.679688 100.335938 L 88.890625 101.527344 L 88.167969 100.871094 L 87.441406 101.527344 L 87.652344 100.335938 L 86.992188 99.554688 L 87.847656 99.476562 L 88.167969 98.335938 L 88.484375 99.476562 L 89.339844 99.554688 Z M 88.679688 100.335938 "/>
<path style=" stroke:none;fill-rule:evenodd;fill:rgb(100%,100%,100%);fill-opacity:1;" d="M 88.53125 96.65625 L 88.714844 97.667969 L 88.09375 97.109375 L 87.476562 97.667969 L 87.65625 96.65625 L 87.09375 95.988281 L 87.824219 95.921875 L 88.09375 94.949219 L 88.363281 95.921875 L 89.097656 95.988281 Z M 88.53125 96.65625 "/>
<path style=" stroke:none;fill-rule:evenodd;fill:rgb(100%,100%,100%);fill-opacity:1;" d="M 91.125 96.691406 L 91.304688 97.707031 L 90.6875 97.144531 L 90.070312 97.707031 L 90.25 96.691406 L 89.6875 96.023438 L 90.417969 95.957031 L 90.6875 94.984375 L 90.957031 95.957031 L 91.6875 96.023438 Z M 91.125 96.691406 "/>
<path style=" stroke:none;fill-rule:evenodd;fill:rgb(100%,100%,100%);fill-opacity:1;" d="M 93.652344 95.144531 L 93.863281 96.332031 L 93.140625 95.675781 L 92.414062 96.332031 L 92.625 95.144531 L 91.964844 94.363281 L 92.820312 94.285156 L 93.140625 93.144531 L 93.457031 94.285156 L 94.3125 94.363281 Z M 93.652344 95.144531 "/>
<path style=" stroke:none;fill-rule:evenodd;fill:rgb(100%,100%,100%);fill-opacity:1;" d="M 94.894531 92.167969 L 95.105469 93.359375 L 94.378906 92.703125 L 93.65625 93.359375 L 93.867188 92.167969 L 93.207031 91.386719 L 94.0625 91.308594 L 94.378906 90.167969 L 94.699219 91.308594 L 95.554688 91.386719 Z M 94.894531 92.167969 "/>
<path style=" stroke:none;fill-rule:evenodd;fill:rgb(100%,100%,100%);fill-opacity:1;" d="M 93.949219 88.527344 L 94.199219 89.9375 L 93.339844 89.160156 L 92.480469 89.9375 L 92.734375 88.527344 L 91.949219 87.597656 L 92.964844 87.507812 L 93.339844 86.15625 L 93.714844 87.507812 L 94.734375 87.597656 Z M 93.949219 88.527344 "/>
<path style=" stroke:none;fill-rule:evenodd;fill:rgb(100%,100%,100%);fill-opacity:1;" d="M 97.621094 88.773438 L 97.800781 89.785156 L 97.183594 89.226562 L 96.566406 89.785156 L 96.746094 88.773438 L 96.183594 88.105469 L 96.914062 88.039062 L 97.183594 87.066406 L 97.453125 88.039062 L 98.183594 88.105469 Z M 97.621094 88.773438 "/>
<path style=" stroke:none;fill-rule:evenodd;fill:rgb(100%,100%,100%);fill-opacity:1;" d="M 59.320312 63.441406 C 74.921875 63.441406 89.226562 71.625 100.234375 85.140625 C 100.601562 83.320312 100.867188 81.441406 101.035156 79.519531 C 89.625 66.316406 75.101562 58.390625 59.320312 58.390625 C 56.582031 58.390625 53.886719 58.632812 51.234375 59.097656 C 50.667969 60.820312 50.191406 62.613281 49.808594 64.46875 C 52.914062 63.792969 56.089844 63.441406 59.320312 63.441406 Z M 59.320312 63.441406 "/>
<path style=" stroke:none;fill-rule:evenodd;fill:rgb(0%,65.098039%,31.764706%);fill-opacity:1;" d="M 52.566406 61.496094 C 52.585938 61.863281 52.660156 62.140625 52.789062 62.328125 C 52.914062 62.515625 53.078125 62.597656 53.285156 62.574219 C 53.492188 62.546875 53.644531 62.425781 53.75 62.210938 C 53.851562 61.992188 53.890625 61.703125 53.871094 61.335938 C 53.847656 60.96875 53.773438 60.691406 53.644531 60.503906 C 53.519531 60.316406 53.351562 60.234375 53.144531 60.257812 C 52.941406 60.285156 52.785156 60.40625 52.683594 60.621094 C 52.582031 60.835938 52.542969 61.128906 52.566406 61.496094 Z M 52.078125 61.554688 C 52.042969 61.019531 52.121094 60.578125 52.308594 60.238281 C 52.492188 59.898438 52.761719 59.707031 53.109375 59.664062 C 53.457031 59.621094 53.742188 59.746094 53.96875 60.035156 C 54.191406 60.328125 54.320312 60.738281 54.355469 61.277344 C 54.386719 61.8125 54.308594 62.25 54.121094 62.59375 C 53.933594 62.933594 53.667969 63.125 53.320312 63.167969 C 52.972656 63.210938 52.683594 63.089844 52.460938 62.796875 C 52.238281 62.507812 52.109375 62.09375 52.078125 61.554688 Z M 55.882812 60.933594 L 56.445312 60.90625 C 56.570312 60.902344 56.65625 60.859375 56.714844 60.789062 C 56.769531 60.714844 56.796875 60.601562 56.792969 60.449219 C 56.789062 60.300781 56.757812 60.195312 56.699219 60.121094 C 56.644531 60.050781 56.558594 60.015625 56.449219 60.023438 L 55.859375 60.050781 Z M 55.445312 62.835938 L 55.367188 59.496094 L 56.5 59.441406 C 56.753906 59.429688 56.945312 59.5 57.070312 59.648438 C 57.199219 59.796875 57.265625 60.035156 57.273438 60.355469 C 57.277344 60.558594 57.25 60.730469 57.195312 60.867188 C 57.136719 61.007812 57.054688 61.105469 56.941406 61.160156 C 57.046875 61.207031 57.121094 61.28125 57.164062 61.382812 C 57.210938 61.488281 57.238281 61.652344 57.25 61.875 L 57.269531 62.269531 C 57.269531 62.273438 57.269531 62.277344 57.269531 62.28125 C 57.277344 62.480469 57.308594 62.601562 57.367188 62.640625 L 57.371094 62.742188 L 56.84375 62.769531 C 56.824219 62.722656 56.8125 62.664062 56.800781 62.597656 C 56.792969 62.527344 56.78125 62.445312 56.78125 62.351562 L 56.765625 62 C 56.753906 61.792969 56.722656 61.65625 56.671875 61.585938 C 56.621094 61.515625 56.53125 61.484375 56.40625 61.488281 L 55.894531 61.515625 L 55.925781 62.8125 Z M 58.894531 62.085938 L 59.28125 62.09375 C 59.503906 62.101562 59.667969 62.023438 59.769531 61.859375 C 59.871094 61.695312 59.925781 61.421875 59.929688 61.050781 C 59.933594 60.675781 59.890625 60.398438 59.800781 60.222656 C 59.710938 60.042969 59.566406 59.953125 59.367188 59.949219 L 58.921875 59.933594 Z M 58.414062 62.675781 L 58.460938 59.335938 L 59.375 59.359375 C 59.734375 59.371094 60 59.515625 60.171875 59.796875 C 60.34375 60.078125 60.425781 60.5 60.417969 61.0625 C 60.414062 61.367188 60.378906 61.636719 60.3125 61.867188 C 60.242188 62.097656 60.144531 62.28125 60.019531 62.421875 C 59.925781 62.523438 59.820312 62.597656 59.699219 62.640625 C 59.582031 62.683594 59.414062 62.703125 59.199219 62.695312 Z M 61.382812 62.75 L 61.507812 59.414062 L 63.203125 59.546875 L 63.179688 60.125 L 61.960938 60.03125 L 61.933594 60.742188 L 63.050781 60.828125 L 63.027344 61.398438 L 61.910156 61.3125 L 61.878906 62.171875 L 63.15625 62.269531 L 63.132812 62.886719 Z M 64.132812 62.984375 L 64.382812 59.660156 L 65.089844 59.769531 L 65.363281 62.367188 L 66.007812 59.910156 L 66.71875 60.019531 L 66.46875 63.339844 L 66.023438 63.269531 L 66.222656 60.59375 L 65.550781 63.199219 L 65.058594 63.125 L 64.78125 60.371094 L 64.582031 63.050781 Z M 70.328125 64.121094 L 70.820312 60.855469 L 72.480469 61.363281 L 72.394531 61.933594 L 71.199219 61.566406 L 71.09375 62.261719 L 72.1875 62.597656 L 72.101562 63.15625 L 71.007812 62.820312 L 70.882812 63.660156 L 72.136719 64.042969 L 72.046875 64.648438 Z M 76.515625 64.328125 L 76.964844 64.5 C 77.085938 64.546875 77.183594 64.546875 77.253906 64.492188 C 77.320312 64.441406 77.371094 64.332031 77.402344 64.167969 C 77.429688 64.015625 77.425781 63.890625 77.386719 63.789062 C 77.347656 63.691406 77.273438 63.621094 77.167969 63.578125 L 76.691406 63.398438 Z M 76.402344 64.910156 L 76.1875 66.058594 L 75.722656 65.878906 L 76.332031 62.65625 L 77.335938 63.042969 C 77.570312 63.132812 77.734375 63.289062 77.824219 63.511719 C 77.914062 63.734375 77.925781 64.015625 77.859375 64.359375 C 77.800781 64.691406 77.691406 64.925781 77.539062 65.058594 C 77.382812 65.191406 77.195312 65.214844 76.972656 65.132812 Z M 79.214844 65.4375 L 79.753906 65.675781 C 79.871094 65.726562 79.964844 65.730469 80.035156 65.683594 C 80.105469 65.640625 80.15625 65.546875 80.1875 65.402344 C 80.21875 65.261719 80.214844 65.144531 80.175781 65.050781 C 80.136719 64.957031 80.0625 64.882812 79.957031 64.835938 L 79.398438 64.589844 Z M 78.367188 67.03125 L 79.054688 63.839844 L 80.140625 64.316406 C 80.382812 64.421875 80.546875 64.574219 80.632812 64.777344 C 80.71875 64.976562 80.726562 65.230469 80.660156 65.535156 C 80.621094 65.730469 80.554688 65.882812 80.46875 65.984375 C 80.386719 66.089844 80.285156 66.144531 80.167969 66.144531 C 80.253906 66.234375 80.304688 66.339844 80.328125 66.460938 C 80.34375 66.582031 80.335938 66.746094 80.296875 66.964844 L 80.222656 67.34375 C 80.222656 67.347656 80.222656 67.351562 80.21875 67.359375 C 80.183594 67.550781 80.1875 67.679688 80.234375 67.742188 L 80.210938 67.839844 L 79.707031 67.621094 C 79.699219 67.566406 79.699219 67.507812 79.707031 67.4375 C 79.710938 67.367188 79.722656 67.285156 79.742188 67.195312 L 79.808594 66.855469 C 79.84375 66.65625 79.847656 66.511719 79.816406 66.421875 C 79.78125 66.332031 79.707031 66.257812 79.582031 66.207031 L 79.097656 65.992188 L 78.828125 67.234375 Z M 81.929688 67.019531 C 81.839844 67.363281 81.824219 67.660156 81.882812 67.910156 C 81.941406 68.15625 82.070312 68.328125 82.261719 68.429688 C 82.457031 68.53125 82.632812 68.515625 82.789062 68.382812 C 82.945312 68.246094 83.070312 68.007812 83.15625 67.660156 C 83.246094 67.316406 83.261719 67.019531 83.203125 66.773438 C 83.140625 66.523438 83.015625 66.351562 82.820312 66.25 C 82.628906 66.148438 82.453125 66.164062 82.296875 66.300781 C 82.140625 66.433594 82.015625 66.671875 81.929688 67.019531 Z M 81.46875 66.777344 C 81.597656 66.273438 81.796875 65.921875 82.066406 65.722656 C 82.335938 65.527344 82.636719 65.515625 82.964844 65.6875 C 83.292969 65.859375 83.515625 66.144531 83.632812 66.542969 C 83.75 66.941406 83.746094 67.394531 83.617188 67.898438 C 83.484375 68.40625 83.285156 68.757812 83.015625 68.953125 C 82.746094 69.148438 82.445312 69.164062 82.117188 68.992188 C 81.789062 68.820312 81.566406 68.535156 81.449219 68.136719 C 81.332031 67.738281 81.339844 67.285156 81.46875 66.777344 Z M 85.792969 70.703125 C 85.667969 70.808594 85.542969 70.863281 85.417969 70.875 C 85.296875 70.886719 85.167969 70.847656 85.027344 70.765625 C 84.726562 70.582031 84.527344 70.285156 84.429688 69.875 C 84.335938 69.460938 84.359375 69.011719 84.503906 68.527344 C 84.648438 68.039062 84.859375 67.703125 85.132812 67.523438 C 85.40625 67.34375 85.695312 67.347656 86.007812 67.535156 C 86.277344 67.699219 86.46875 67.925781 86.585938 68.214844 C 86.699219 68.5 86.726562 68.816406 86.660156 69.160156 L 86.210938 68.882812 C 86.230469 68.707031 86.210938 68.550781 86.152344 68.417969 C 86.09375 68.28125 85.996094 68.171875 85.859375 68.089844 C 85.679688 67.980469 85.511719 67.988281 85.351562 68.117188 C 85.191406 68.242188 85.0625 68.472656 84.964844 68.804688 C 84.863281 69.136719 84.839844 69.429688 84.890625 69.6875 C 84.941406 69.941406 85.058594 70.125 85.246094 70.238281 C 85.386719 70.324219 85.523438 70.335938 85.652344 70.273438 C 85.78125 70.214844 85.890625 70.085938 85.972656 69.894531 L 85.484375 69.597656 L 85.640625 69.074219 L 86.53125 69.613281 L 86.035156 71.277344 L 85.738281 71.097656 Z M 88.015625 70.613281 L 88.523438 70.96875 C 88.632812 71.046875 88.726562 71.070312 88.800781 71.042969 C 88.875 71.015625 88.933594 70.933594 88.980469 70.792969 C 89.027344 70.664062 89.035156 70.546875 89.007812 70.445312 C 88.980469 70.34375 88.917969 70.257812 88.816406 70.1875 L 88.289062 69.816406 Z M 87.007812 72 L 88.035156 69 L 89.050781 69.710938 C 89.28125 69.871094 89.425781 70.058594 89.488281 70.277344 C 89.550781 70.496094 89.535156 70.746094 89.433594 71.035156 C 89.371094 71.21875 89.292969 71.351562 89.195312 71.4375 C 89.101562 71.519531 88.996094 71.550781 88.878906 71.523438 C 88.957031 71.636719 88.996094 71.75 89.003906 71.871094 C 89.007812 71.996094 88.980469 72.160156 88.917969 72.363281 L 88.804688 72.722656 C 88.800781 72.726562 88.800781 72.730469 88.800781 72.734375 C 88.742188 72.917969 88.730469 73.042969 88.769531 73.117188 L 88.738281 73.210938 L 88.265625 72.878906 C 88.261719 72.824219 88.269531 72.765625 88.28125 72.699219 C 88.296875 72.632812 88.316406 72.554688 88.34375 72.46875 L 88.445312 72.148438 C 88.503906 71.957031 88.523438 71.816406 88.5 71.71875 C 88.480469 71.625 88.410156 71.535156 88.296875 71.457031 L 87.839844 71.132812 L 87.4375 72.300781 Z M 89.617188 73.914062 L 90.753906 70.996094 L 92.238281 72.175781 L 92.042969 72.683594 L 90.972656 71.835938 L 90.730469 72.457031 L 91.707031 73.234375 L 91.511719 73.734375 L 90.535156 72.957031 L 90.242188 73.707031 L 91.363281 74.597656 L 91.152344 75.136719 Z M 92.257812 74.949219 L 92.664062 75.300781 C 92.613281 75.46875 92.609375 75.625 92.652344 75.765625 C 92.691406 75.90625 92.785156 76.035156 92.925781 76.15625 C 93.046875 76.257812 93.148438 76.304688 93.234375 76.296875 C 93.320312 76.289062 93.386719 76.226562 93.4375 76.105469 C 93.511719 75.933594 93.398438 75.640625 93.097656 75.222656 C 93.09375 75.21875 93.089844 75.214844 93.085938 75.210938 C 93.078125 75.199219 93.066406 75.183594 93.050781 75.160156 C 92.886719 74.941406 92.78125 74.761719 92.734375 74.621094 C 92.691406 74.496094 92.671875 74.359375 92.683594 74.21875 C 92.691406 74.078125 92.726562 73.933594 92.789062 73.785156 C 92.90625 73.503906 93.0625 73.347656 93.257812 73.316406 C 93.453125 73.28125 93.675781 73.371094 93.925781 73.585938 C 94.160156 73.789062 94.308594 74.023438 94.375 74.296875 C 94.4375 74.566406 94.414062 74.847656 94.300781 75.144531 L 93.90625 74.800781 C 93.957031 74.65625 93.964844 74.519531 93.925781 74.390625 C 93.890625 74.261719 93.808594 74.140625 93.6875 74.035156 C 93.578125 73.941406 93.484375 73.898438 93.398438 73.910156 C 93.316406 73.921875 93.25 73.980469 93.203125 74.09375 C 93.136719 74.242188 93.203125 74.453125 93.398438 74.726562 C 93.453125 74.800781 93.496094 74.855469 93.523438 74.898438 C 93.648438 75.078125 93.734375 75.207031 93.78125 75.289062 C 93.832031 75.371094 93.871094 75.453125 93.898438 75.527344 C 93.953125 75.660156 93.980469 75.800781 93.976562 75.941406 C 93.972656 76.085938 93.9375 76.230469 93.875 76.378906 C 93.75 76.675781 93.582031 76.847656 93.371094 76.890625 C 93.160156 76.933594 92.929688 76.84375 92.675781 76.625 C 92.421875 76.40625 92.257812 76.152344 92.1875 75.863281 C 92.113281 75.570312 92.136719 75.269531 92.257812 74.949219 Z M 94.722656 77.152344 L 95.113281 77.53125 C 95.058594 77.699219 95.046875 77.851562 95.085938 77.996094 C 95.121094 78.136719 95.207031 78.273438 95.34375 78.40625 C 95.460938 78.519531 95.5625 78.574219 95.648438 78.570312 C 95.734375 78.570312 95.804688 78.511719 95.859375 78.394531 C 95.9375 78.226562 95.835938 77.925781 95.550781 77.488281 C 95.546875 77.484375 95.542969 77.476562 95.539062 77.472656 C 95.53125 77.460938 95.519531 77.445312 95.503906 77.421875 C 95.351562 77.191406 95.253906 77.003906 95.210938 76.859375 C 95.171875 76.726562 95.15625 76.59375 95.171875 76.453125 C 95.1875 76.3125 95.226562 76.171875 95.296875 76.027344 C 95.421875 75.757812 95.585938 75.613281 95.78125 75.59375 C 95.976562 75.574219 96.195312 75.679688 96.4375 75.914062 C 96.664062 76.132812 96.804688 76.378906 96.859375 76.65625 C 96.914062 76.933594 96.878906 77.214844 96.753906 77.5 L 96.371094 77.128906 C 96.429688 76.988281 96.441406 76.851562 96.410156 76.71875 C 96.378906 76.585938 96.300781 76.460938 96.183594 76.347656 C 96.078125 76.246094 95.984375 76.195312 95.898438 76.199219 C 95.816406 76.203125 95.746094 76.257812 95.695312 76.367188 C 95.625 76.511719 95.6875 76.726562 95.871094 77.015625 C 95.921875 77.089844 95.960938 77.152344 95.988281 77.195312 C 96.105469 77.382812 96.1875 77.519531 96.230469 77.605469 C 96.277344 77.691406 96.3125 77.773438 96.339844 77.851562 C 96.390625 77.988281 96.410156 78.128906 96.398438 78.269531 C 96.390625 78.414062 96.351562 78.554688 96.285156 78.699219 C 96.148438 78.988281 95.972656 79.144531 95.761719 79.171875 C 95.550781 79.199219 95.324219 79.09375 95.074219 78.855469 C 94.832031 78.617188 94.679688 78.351562 94.617188 78.058594 C 94.554688 77.761719 94.589844 77.460938 94.722656 77.152344 Z M 97.691406 79.40625 C 97.535156 79.699219 97.460938 79.976562 97.464844 80.234375 C 97.472656 80.496094 97.558594 80.714844 97.71875 80.890625 C 97.886719 81.070312 98.058594 81.128906 98.234375 81.066406 C 98.414062 81.003906 98.578125 80.824219 98.734375 80.53125 C 98.890625 80.238281 98.964844 79.960938 98.957031 79.699219 C 98.953125 79.4375 98.867188 79.21875 98.699219 79.039062 C 98.539062 78.863281 98.367188 78.804688 98.191406 78.867188 C 98.011719 78.933594 97.847656 79.109375 97.691406 79.40625 Z M 97.300781 78.980469 C 97.527344 78.550781 97.792969 78.300781 98.089844 78.222656 C 98.386719 78.148438 98.675781 78.261719 98.953125 78.5625 C 99.234375 78.863281 99.386719 79.230469 99.417969 79.660156 C 99.449219 80.09375 99.351562 80.523438 99.125 80.949219 C 98.898438 81.382812 98.632812 81.632812 98.335938 81.707031 C 98.035156 81.78125 97.746094 81.671875 97.46875 81.371094 C 97.191406 81.066406 97.035156 80.703125 97.003906 80.273438 C 96.976562 79.84375 97.074219 79.410156 97.300781 78.980469 Z M 97.300781 78.980469 "/>
</g>
</svg>
